<svg xmlns="http://www.w3.org/2000/svg" width="64" height="64" viewBox="0 0 64 64">
  <metadata><?xpacket begin="﻿" id="W5M0MpCehiHzreSzNTczkc9d"?>
<x:xmpmeta xmlns:x="adobe:ns:meta/" x:xmptk="Adobe XMP Core 5.6-c140 79.160451, 2017/05/06-01:08:21        ">
   <rdf:RDF xmlns:rdf="http://www.w3.org/1999/02/22-rdf-syntax-ns#">
      <rdf:Description rdf:about=""/>
   </rdf:RDF>
</x:xmpmeta>
                                                                                                    
                                                                                                    
                                                                                                    
                                                                                                    
                                                                                                    
                                                                                                    
                                                                                                    
                                                                                                    
                                                                                                    
                                                                                                    
                                                                                                    
                                                                                                    
                                                                                                    
                                                                                                    
                                                                                                    
                                                                                                    
                                                                                                    
                                                                                                    
                                                                                                    
                                                                                                    
                           
<?xpacket end="w"?></metadata>
<defs>
    <style>
      .cls-1 {
        fill: #ba271f;
        fill-rule: evenodd;
      }
    </style>
  </defs>
  <path id="Clock" class="cls-1" d="M421,815a32,32,0,1,0,32,32A32,32,0,0,0,421,815Zm0,62a30,30,0,1,1,30-30A30,30,0,0,1,421,877Zm1-30a1,1,0,1,0-1,1A1,1,0,0,0,422,847Zm3.931,0.688A4.71,4.71,0,0,0,424,843.022V829a3,3,0,0,0-6,0v14.022A4.985,4.985,0,0,0,421,852a4.86,4.86,0,0,0,.687-0.07l8.5,8.506a3,3,0,0,0,4.243-4.244ZM420,829a1,1,0,0,1,2,0v13.1a5,5,0,0,0-2,0V829Zm-2,18a3,3,0,1,1,3,3A3,3,0,0,1,418,847Zm15.02,12.02a1,1,0,0,1-1.414,0l-7.852-7.853a5.018,5.018,0,0,0,1.415-1.415l7.851,7.852A1,1,0,0,1,433.02,859.02ZM421,819a28,28,0,1,0,28,28A28,28,0,0,0,421,819Zm19.075,45.66-2.1-2.1a1,1,0,1,0-1.415,1.415l2.1,2.1a25.888,25.888,0,0,1-16.66,6.9V870a1,1,0,0,0-2,0v2.973a25.891,25.891,0,0,1-16.66-6.9l2.1-2.1a1,1,0,0,0-1.414-1.414l-2.1,2.1a25.9,25.9,0,0,1-6.9-16.66H398a1,1,0,0,0,0-2h-2.974a25.9,25.9,0,0,1,6.9-16.661l2.1,2.1a1,1,0,0,0,1.414-1.414l-2.1-2.1a25.892,25.892,0,0,1,16.661-6.9V824a1,1,0,0,0,2,0v-2.975a25.891,25.891,0,0,1,16.661,6.9l-2.1,2.1a1,1,0,0,0,1.414,1.415l2.1-2.1a25.9,25.9,0,0,1,6.9,16.661H444a1,1,0,0,0,0,2h2.975A25.893,25.893,0,0,1,440.075,864.66Z" transform="translate(-389 -815)"/>
</svg>
