<svg xmlns="http://www.w3.org/2000/svg" width="64" height="64" viewBox="0 0 64 64">
  <metadata><?xpacket begin="﻿" id="W5M0MpCehiHzreSzNTczkc9d"?>
<x:xmpmeta xmlns:x="adobe:ns:meta/" x:xmptk="Adobe XMP Core 5.6-c140 79.160451, 2017/05/06-01:08:21        ">
   <rdf:RDF xmlns:rdf="http://www.w3.org/1999/02/22-rdf-syntax-ns#">
      <rdf:Description rdf:about=""/>
   </rdf:RDF>
</x:xmpmeta>
                                                                                                    
                                                                                                    
                                                                                                    
                                                                                                    
                                                                                                    
                                                                                                    
                                                                                                    
                                                                                                    
                                                                                                    
                                                                                                    
                                                                                                    
                                                                                                    
                                                                                                    
                                                                                                    
                                                                                                    
                                                                                                    
                                                                                                    
                                                                                                    
                                                                                                    
                                                                                                    
                           
<?xpacket end="w"?></metadata>
<defs>
    <style>
      .cls-1 {
        fill: #ba271f;
        fill-rule: evenodd;
      }
    </style>
  </defs>
  <path id="Globe" class="cls-1" d="M420,1061a32,32,0,1,0,32,32A32,32,0,0,0,420,1061Zm17.972,31a39.822,39.822,0,0,0-3.614-15.67,39.54,39.54,0,0,0,7.515-3.85,29.888,29.888,0,0,1,8.1,19.52h-12Zm-16.639,30.97H421v-11.93a38.032,38.032,0,0,1,9.606,1.46A38.315,38.315,0,0,1,421.333,1122.97Zm11.216-9.83a37.834,37.834,0,0,1,6.523,3.02,29.926,29.926,0,0,1-14.178,6.44A40.363,40.363,0,0,0,432.549,1113.14Zm-23.155-.64a38.025,38.025,0,0,1,9.606-1.46v11.93h-0.333A38.3,38.3,0,0,1,409.394,1112.5Zm5.712,10.1a29.926,29.926,0,0,1-14.178-6.44,37.834,37.834,0,0,1,6.523-3.02A40.338,40.338,0,0,0,415.106,1122.6ZM390.025,1092a29.888,29.888,0,0,1,8.1-19.52,39.54,39.54,0,0,0,7.515,3.85,39.822,39.822,0,0,0-3.614,15.67h-12Zm41.545-16.8a37.659,37.659,0,0,1-10.57,1.76v-13.93h0.333A38.126,38.126,0,0,1,431.57,1075.2Zm-6.676-11.8a29.9,29.9,0,0,1,15.521,7.63,37.9,37.9,0,0,1-6.944,3.5A40.19,40.19,0,0,0,424.894,1063.4Zm-5.894-.37v13.93a37.659,37.659,0,0,1-10.57-1.76,38.126,38.126,0,0,1,10.237-12.17H419Zm-12.471,11.5a37.9,37.9,0,0,1-6.944-3.5,29.9,29.9,0,0,1,15.521-7.63A40.19,40.19,0,0,0,406.529,1074.53Zm1,2.48A39.881,39.881,0,0,0,419,1078.98V1092H404.031A37.73,37.73,0,0,1,407.532,1077.01ZM419,1094v15.04a39.569,39.569,0,0,0-10.615,1.69,37.79,37.79,0,0,1-4.354-16.73H419Zm2,15.04V1094h14.969a37.8,37.8,0,0,1-4.354,16.73A39.569,39.569,0,0,0,421,1109.04Zm0-17.04v-13.02a39.881,39.881,0,0,0,11.468-1.97,37.73,37.73,0,0,1,3.5,14.99H421Zm-30.975,2h12a39.79,39.79,0,0,0,4.448,17.37,39.405,39.405,0,0,0-7.11,3.4A29.932,29.932,0,0,1,390.025,1094Zm50.609,20.77a39.437,39.437,0,0,0-7.11-3.4,39.79,39.79,0,0,0,4.448-17.37h12A29.932,29.932,0,0,1,440.634,1114.77Z" transform="translate(-388 -1061)"/>
</svg>
