<svg xmlns="http://www.w3.org/2000/svg" width="40" height="64" viewBox="0 0 40 64">
  <metadata><?xpacket begin="﻿" id="W5M0MpCehiHzreSzNTczkc9d"?>
<x:xmpmeta xmlns:x="adobe:ns:meta/" x:xmptk="Adobe XMP Core 5.6-c140 79.160451, 2017/05/06-01:08:21        ">
   <rdf:RDF xmlns:rdf="http://www.w3.org/1999/02/22-rdf-syntax-ns#">
      <rdf:Description rdf:about=""/>
   </rdf:RDF>
</x:xmpmeta>
                                                                                                    
                                                                                                    
                                                                                                    
                                                                                                    
                                                                                                    
                                                                                                    
                                                                                                    
                                                                                                    
                                                                                                    
                                                                                                    
                                                                                                    
                                                                                                    
                                                                                                    
                                                                                                    
                                                                                                    
                                                                                                    
                                                                                                    
                                                                                                    
                                                                                                    
                                                                                                    
                           
<?xpacket end="w"?></metadata>
<defs>
    <style>
      .cls-1 {
        fill: #ba271f;
        fill-rule: evenodd;
      }
    </style>
  </defs>
  <path id="iPhone" class="cls-1" d="M1200,816h-32a4,4,0,0,0-4,4v56a4,4,0,0,0,4,4h32a4,4,0,0,0,4-4V820A4,4,0,0,0,1200,816Zm2,60a2,2,0,0,1-2,2h-32a2,2,0,0,1-2-2v-8h36v8Zm0-10h-36V826h36v40Zm0-42h-36v-4a2,2,0,0,1,2-2h32a2,2,0,0,1,2,2v4Zm-18,52a3,3,0,1,0-3-3A3,3,0,0,0,1184,876Zm0-4a1,1,0,1,1-1,1A1,1,0,0,1,1184,872Zm1-52h-6a1,1,0,0,0,0,2h6A1,1,0,0,0,1185,820Zm4,0a1,1,0,1,0,1,1A1,1,0,0,0,1189,820Z" transform="translate(-1164 -816)"/>
</svg>
