<svg xmlns="http://www.w3.org/2000/svg" width="64" height="64" viewBox="0 0 64 64">
  <metadata><?xpacket begin="﻿" id="W5M0MpCehiHzreSzNTczkc9d"?>
<x:xmpmeta xmlns:x="adobe:ns:meta/" x:xmptk="Adobe XMP Core 5.6-c140 79.160451, 2017/05/06-01:08:21        ">
   <rdf:RDF xmlns:rdf="http://www.w3.org/1999/02/22-rdf-syntax-ns#">
      <rdf:Description rdf:about=""/>
   </rdf:RDF>
</x:xmpmeta>
                                                                                                    
                                                                                                    
                                                                                                    
                                                                                                    
                                                                                                    
                                                                                                    
                                                                                                    
                                                                                                    
                                                                                                    
                                                                                                    
                                                                                                    
                                                                                                    
                                                                                                    
                                                                                                    
                                                                                                    
                                                                                                    
                                                                                                    
                                                                                                    
                                                                                                    
                                                                                                    
                           
<?xpacket end="w"?></metadata>
<defs>
    <style>
      .cls-1 {
        fill: #ba271f;
        fill-rule: evenodd;
      }
    </style>
  </defs>
  <path id="Man" class="cls-1" d="M1209.24,1107.76l0.02-.02a47.933,47.933,0,0,0-20.5-9.72A13.945,13.945,0,0,0,1193,1088a3,3,0,0,0,3-3v-2a2.97,2.97,0,0,0-1-2.22V1072a12,12,0,0,0-12-12h-8a12,12,0,0,0-12,12v8.78a2.97,2.97,0,0,0-1,2.22v2a3,3,0,0,0,3,3,13.945,13.945,0,0,0,4.24,10.02,47.933,47.933,0,0,0-20.5,9.72l0.02,0.02A5.944,5.944,0,0,0,1147,1112v8a4,4,0,0,0,4,4h56a4,4,0,0,0,4-4v-8A5.944,5.944,0,0,0,1209.24,1107.76ZM1165,1072a10,10,0,0,1,10-10h8a10,10,0,0,1,10,10v7a6,6,0,0,0-6-6h-6a4,4,0,0,1-4-4,1,1,0,0,0-2,0,4,4,0,0,1-4,4,6,6,0,0,0-6,6v-7Zm2,16v-1a1,1,0,0,0-1-1h-1a1,1,0,0,1-1-1v-2a1,1,0,0,1,1-1h1a1,1,0,0,0,1-1v-2a4,4,0,0,1,4-4,5.992,5.992,0,0,1,10,0h6a4,4,0,0,1,4,4v2a1,1,0,0,0,1,1h1a1,1,0,0,1,1,1v2a1,1,0,0,1-1,1h-1a1,1,0,0,0-1,1v1A12,12,0,0,1,1167,1088Zm12,14a13.947,13.947,0,0,0,7.71-2.32,46.935,46.935,0,0,1,4.9,1.08,17.853,17.853,0,0,1-25.26.01,47.14,47.14,0,0,1,4.94-1.09A13.947,13.947,0,0,0,1179,1102Zm30,18a2.006,2.006,0,0,1-2,2h-56a2.006,2.006,0,0,1-2-2v-8a4.025,4.025,0,0,1,1.17-2.83h0a45.987,45.987,0,0,1,14.04-7.72,19.906,19.906,0,0,0,29.53-.01,45.94,45.94,0,0,1,14.09,7.73h0A4.025,4.025,0,0,1,1209,1112v8Zm-37.46-38.14a1.009,1.009,0,0,0,1.34-.39,1.225,1.225,0,0,1,1.12-.47,1.284,1.284,0,0,1,1.11.46,1.012,1.012,0,0,0,.89.54,1.107,1.107,0,0,0,.46-0.11,1.006,1.006,0,0,0,.43-1.35A3.233,3.233,0,0,0,1174,1079a3.16,3.16,0,0,0-2.9,1.56A0.97,0.97,0,0,0,1171.54,1081.86Zm10,0a1.009,1.009,0,0,0,1.34-.39,1.225,1.225,0,0,1,1.12-.47,1.264,1.264,0,0,1,1.11.46,1.012,1.012,0,0,0,.89.54,1.072,1.072,0,0,0,.46-0.11,1.006,1.006,0,0,0,.43-1.35A3.233,3.233,0,0,0,1184,1079a3.16,3.16,0,0,0-2.9,1.56A0.987,0.987,0,0,0,1181.54,1081.86Z" transform="translate(-1147 -1060)"/>
</svg>
